<mxfile host="app.diagrams.net" agent="Mozilla/5.0 (Windows NT 10.0; Win64; x64) AppleWebKit/537.36 (KHTML, like Gecko) Chrome/138.0.0.0 Safari/537.36" version="28.0.9">
  <diagram name="Page-1" id="cc2SQZKulaa3Ugj6z3R2">
    <mxGraphModel dx="1042" dy="527" grid="1" gridSize="10" guides="1" tooltips="1" connect="1" arrows="1" fold="1" page="1" pageScale="1" pageWidth="850" pageHeight="1100" math="0" shadow="0">
      <root>
        <mxCell id="0" />
        <mxCell id="1" parent="0" />
        <mxCell id="pEEVsMKxBnhdhl_D4hkM-14" value="" style="edgeStyle=orthogonalEdgeStyle;rounded=0;orthogonalLoop=1;jettySize=auto;html=1;" edge="1" parent="1" source="pEEVsMKxBnhdhl_D4hkM-12" target="pEEVsMKxBnhdhl_D4hkM-13">
          <mxGeometry relative="1" as="geometry" />
        </mxCell>
        <mxCell id="pEEVsMKxBnhdhl_D4hkM-12" value="&lt;b&gt;&lt;font style=&quot;font-size: 18px;&quot;&gt;Plan&lt;/font&gt;&lt;/b&gt;" style="ellipse;whiteSpace=wrap;html=1;" vertex="1" parent="1">
          <mxGeometry x="365" y="60" width="120" height="80" as="geometry" />
        </mxCell>
        <mxCell id="pEEVsMKxBnhdhl_D4hkM-16" value="" style="edgeStyle=orthogonalEdgeStyle;rounded=0;orthogonalLoop=1;jettySize=auto;html=1;" edge="1" parent="1" source="pEEVsMKxBnhdhl_D4hkM-13" target="pEEVsMKxBnhdhl_D4hkM-15">
          <mxGeometry relative="1" as="geometry" />
        </mxCell>
        <mxCell id="pEEVsMKxBnhdhl_D4hkM-13" value="&lt;b&gt;&lt;font style=&quot;font-size: 15px;&quot;&gt;Develop&lt;/font&gt;&lt;/b&gt;" style="ellipse;whiteSpace=wrap;html=1;" vertex="1" parent="1">
          <mxGeometry x="365" y="220" width="120" height="80" as="geometry" />
        </mxCell>
        <mxCell id="pEEVsMKxBnhdhl_D4hkM-18" value="" style="edgeStyle=orthogonalEdgeStyle;rounded=0;orthogonalLoop=1;jettySize=auto;html=1;" edge="1" parent="1" source="pEEVsMKxBnhdhl_D4hkM-15" target="pEEVsMKxBnhdhl_D4hkM-17">
          <mxGeometry relative="1" as="geometry" />
        </mxCell>
        <mxCell id="pEEVsMKxBnhdhl_D4hkM-15" value="&lt;b&gt;&lt;font style=&quot;font-size: 15px;&quot;&gt;Build&lt;/font&gt;&lt;/b&gt;" style="ellipse;whiteSpace=wrap;html=1;" vertex="1" parent="1">
          <mxGeometry x="365" y="380" width="120" height="80" as="geometry" />
        </mxCell>
        <mxCell id="pEEVsMKxBnhdhl_D4hkM-20" value="" style="edgeStyle=orthogonalEdgeStyle;rounded=0;orthogonalLoop=1;jettySize=auto;html=1;" edge="1" parent="1" source="pEEVsMKxBnhdhl_D4hkM-17" target="pEEVsMKxBnhdhl_D4hkM-19">
          <mxGeometry relative="1" as="geometry" />
        </mxCell>
        <mxCell id="pEEVsMKxBnhdhl_D4hkM-17" value="&lt;b&gt;&lt;font style=&quot;font-size: 14px;&quot;&gt;Test&lt;/font&gt;&lt;/b&gt;" style="ellipse;whiteSpace=wrap;html=1;" vertex="1" parent="1">
          <mxGeometry x="365" y="540" width="120" height="80" as="geometry" />
        </mxCell>
        <mxCell id="pEEVsMKxBnhdhl_D4hkM-22" value="" style="edgeStyle=orthogonalEdgeStyle;rounded=0;orthogonalLoop=1;jettySize=auto;html=1;" edge="1" parent="1" source="pEEVsMKxBnhdhl_D4hkM-19" target="pEEVsMKxBnhdhl_D4hkM-21">
          <mxGeometry relative="1" as="geometry" />
        </mxCell>
        <mxCell id="pEEVsMKxBnhdhl_D4hkM-19" value="&lt;b&gt;&lt;font style=&quot;font-size: 14px;&quot;&gt;Release&lt;/font&gt;&lt;/b&gt;" style="ellipse;whiteSpace=wrap;html=1;" vertex="1" parent="1">
          <mxGeometry x="365" y="700" width="120" height="80" as="geometry" />
        </mxCell>
        <mxCell id="pEEVsMKxBnhdhl_D4hkM-24" value="" style="edgeStyle=orthogonalEdgeStyle;rounded=0;orthogonalLoop=1;jettySize=auto;html=1;" edge="1" parent="1" source="pEEVsMKxBnhdhl_D4hkM-21" target="pEEVsMKxBnhdhl_D4hkM-23">
          <mxGeometry relative="1" as="geometry" />
        </mxCell>
        <mxCell id="pEEVsMKxBnhdhl_D4hkM-21" value="&lt;b&gt;&lt;font style=&quot;font-size: 14px;&quot;&gt;Deploy&lt;/font&gt;&lt;/b&gt;" style="ellipse;whiteSpace=wrap;html=1;" vertex="1" parent="1">
          <mxGeometry x="365" y="860" width="120" height="80" as="geometry" />
        </mxCell>
        <mxCell id="pEEVsMKxBnhdhl_D4hkM-26" value="" style="edgeStyle=orthogonalEdgeStyle;rounded=0;orthogonalLoop=1;jettySize=auto;html=1;" edge="1" parent="1" source="pEEVsMKxBnhdhl_D4hkM-23" target="pEEVsMKxBnhdhl_D4hkM-25">
          <mxGeometry relative="1" as="geometry" />
        </mxCell>
        <mxCell id="pEEVsMKxBnhdhl_D4hkM-23" value="&lt;b&gt;&lt;font style=&quot;font-size: 14px;&quot;&gt;Operate&lt;/font&gt;&lt;/b&gt;" style="ellipse;whiteSpace=wrap;html=1;" vertex="1" parent="1">
          <mxGeometry x="365" y="1020" width="120" height="80" as="geometry" />
        </mxCell>
        <mxCell id="pEEVsMKxBnhdhl_D4hkM-25" value="&lt;b&gt;&lt;font style=&quot;font-size: 14px;&quot;&gt;Monitor&lt;/font&gt;&lt;/b&gt;" style="ellipse;whiteSpace=wrap;html=1;" vertex="1" parent="1">
          <mxGeometry x="365" y="1180" width="120" height="80" as="geometry" />
        </mxCell>
      </root>
    </mxGraphModel>
  </diagram>
</mxfile>
